<?xml version="1.0" encoding="UTF-8" standalone="no"?>
<!DOCTYPE svg PUBLIC "-//W3C//DTD SVG 1.1//EN"
 "http://www.w3.org/Graphics/SVG/1.1/DTD/svg11.dtd">
<!-- Generated by graphviz version 5.0.0 (20220707.1540)
 -->
<!-- Title: dependencies Pages: 1 -->
<svg width="706pt" height="174pt"
 viewBox="0.00 0.00 706.00 173.80" xmlns="http://www.w3.org/2000/svg" xmlns:xlink="http://www.w3.org/1999/xlink">
<g id="graph0" class="graph" transform="scale(1 1) rotate(0) translate(4 169.8)">
<title>dependencies</title>
<polygon fill="white" stroke="transparent" points="-4,4 -4,-169.8 702,-169.8 702,4 -4,4"/>
<text text-anchor="middle" x="349" y="-8.2" font-family="sans-serif" font-size="14.00">dependencies</text>
<g id="clust1" class="cluster">
<title>cluster_ListingModule</title>
<polygon fill="none" stroke="black" stroke-dasharray="1,5" points="8,-32.8 8,-157.8 690,-157.8 690,-32.8 8,-32.8"/>
</g>
<g id="clust2" class="cluster">
<title>cluster_ListingModule_declarations</title>
<polygon fill="none" stroke="black" points="168,-40.8 168,-92.8 682,-92.8 682,-40.8 168,-40.8"/>
</g>
<g id="clust6" class="cluster">
<title>cluster_ListingModule_imports</title>
<polygon fill="none" stroke="black" points="16,-40.8 16,-92.8 160,-92.8 160,-40.8 16,-40.8"/>
</g>
<!-- CreateEditListingComponent -->
<g id="node1" class="node">
<title>CreateEditListingComponent</title>
<polygon fill="#ffffb3" stroke="black" points="674.36,-84.8 493.64,-84.8 493.64,-48.8 674.36,-48.8 674.36,-84.8"/>
<text text-anchor="middle" x="584" y="-62.6" font-family="Times,serif" font-size="14.00">CreateEditListingComponent</text>
</g>
<!-- ListingModule -->
<g id="node4" class="node">
<title>ListingModule</title>
<polygon fill="#8dd3c7" stroke="black" points="367.72,-149.8 364.72,-153.8 343.72,-153.8 340.72,-149.8 268.28,-149.8 268.28,-113.8 367.72,-113.8 367.72,-149.8"/>
<text text-anchor="middle" x="318" y="-127.6" font-family="Times,serif" font-size="14.00">ListingModule</text>
</g>
<!-- CreateEditListingComponent&#45;&gt;ListingModule -->
<g id="edge1" class="edge">
<title>CreateEditListingComponent&#45;&gt;ListingModule</title>
<path fill="none" stroke="black" d="M584,-84.91C584,-104.14 584,-131.8 584,-131.8 584,-131.8 377.72,-131.8 377.72,-131.8"/>
<polygon fill="black" stroke="black" points="377.72,-128.3 367.72,-131.8 377.72,-135.3 377.72,-128.3"/>
</g>
<!-- ListingDetailComponent -->
<g id="node2" class="node">
<title>ListingDetailComponent</title>
<polygon fill="#ffffb3" stroke="black" points="475.71,-84.8 320.29,-84.8 320.29,-48.8 475.71,-48.8 475.71,-84.8"/>
<text text-anchor="middle" x="398" y="-62.6" font-family="Times,serif" font-size="14.00">ListingDetailComponent</text>
</g>
<!-- ListingDetailComponent&#45;&gt;ListingModule -->
<g id="edge2" class="edge">
<title>ListingDetailComponent&#45;&gt;ListingModule</title>
<path fill="none" stroke="black" d="M344,-84.91C344,-84.91 344,-103.79 344,-103.79"/>
<polygon fill="black" stroke="black" points="340.5,-103.79 344,-113.79 347.5,-103.79 340.5,-103.79"/>
</g>
<!-- ListingsComponent -->
<g id="node3" class="node">
<title>ListingsComponent</title>
<polygon fill="#ffffb3" stroke="black" points="302.45,-84.8 175.55,-84.8 175.55,-48.8 302.45,-48.8 302.45,-84.8"/>
<text text-anchor="middle" x="239" y="-62.6" font-family="Times,serif" font-size="14.00">ListingsComponent</text>
</g>
<!-- ListingsComponent&#45;&gt;ListingModule -->
<g id="edge3" class="edge">
<title>ListingsComponent&#45;&gt;ListingModule</title>
<path fill="none" stroke="black" d="M285.31,-84.91C285.31,-84.91 285.31,-103.79 285.31,-103.79"/>
<polygon fill="black" stroke="black" points="281.81,-103.79 285.31,-113.79 288.81,-103.79 281.81,-103.79"/>
</g>
<!-- AppRoutingModule -->
<g id="node5" class="node">
<title>AppRoutingModule</title>
<polygon fill="#8dd3c7" stroke="black" points="152.28,-84.8 149.28,-88.8 128.28,-88.8 125.28,-84.8 23.72,-84.8 23.72,-48.8 152.28,-48.8 152.28,-84.8"/>
<text text-anchor="middle" x="88" y="-62.6" font-family="Times,serif" font-size="14.00">AppRoutingModule</text>
</g>
<!-- AppRoutingModule&#45;&gt;ListingModule -->
<g id="edge4" class="edge">
<title>AppRoutingModule&#45;&gt;ListingModule</title>
<path fill="none" stroke="black" d="M88,-84.91C88,-104.14 88,-131.8 88,-131.8 88,-131.8 258.38,-131.8 258.38,-131.8"/>
<polygon fill="black" stroke="black" points="258.38,-135.3 268.38,-131.8 258.38,-128.3 258.38,-135.3"/>
</g>
</g>
</svg>
