<?xml version="1.0" encoding="UTF-8" standalone="no"?>
<!DOCTYPE svg PUBLIC "-//W3C//DTD SVG 1.1//EN"
 "http://www.w3.org/Graphics/SVG/1.1/DTD/svg11.dtd">
<!-- Generated by graphviz version 5.0.0 (20220707.1540)
 -->
<!-- Title: dependencies Pages: 1 -->
<svg width="935pt" height="174pt"
 viewBox="0.00 0.00 935.00 173.80" xmlns="http://www.w3.org/2000/svg" xmlns:xlink="http://www.w3.org/1999/xlink">
<g id="graph0" class="graph" transform="scale(1 1) rotate(0) translate(4 169.8)">
<title>dependencies</title>
<polygon fill="white" stroke="transparent" points="-4,4 -4,-169.8 931,-169.8 931,4 -4,4"/>
<text text-anchor="middle" x="463.5" y="-8.2" font-family="sans-serif" font-size="14.00">dependencies</text>
<g id="clust1" class="cluster">
<title>cluster_UserModule</title>
<polygon fill="none" stroke="black" stroke-dasharray="1,5" points="8,-32.8 8,-157.8 919,-157.8 919,-32.8 8,-32.8"/>
</g>
<g id="clust7" class="cluster">
<title>cluster_UserModule_imports</title>
<polygon fill="none" stroke="black" points="767,-40.8 767,-92.8 911,-92.8 911,-40.8 767,-40.8"/>
</g>
<g id="clust10" class="cluster">
<title>cluster_UserModule_providers</title>
<polygon fill="none" stroke="black" points="627,-40.8 627,-92.8 759,-92.8 759,-40.8 627,-40.8"/>
</g>
<g id="clust2" class="cluster">
<title>cluster_UserModule_declarations</title>
<polygon fill="none" stroke="black" points="16,-40.8 16,-92.8 619,-92.8 619,-40.8 16,-40.8"/>
</g>
<!-- ChangePasswordComponent -->
<g id="node1" class="node">
<title>ChangePasswordComponent</title>
<polygon fill="#ffffb3" stroke="black" points="610.77,-84.8 433.23,-84.8 433.23,-48.8 610.77,-48.8 610.77,-84.8"/>
<text text-anchor="middle" x="522" y="-62.6" font-family="Times,serif" font-size="14.00">ChangePasswordComponent</text>
</g>
<!-- UserModule -->
<g id="node5" class="node">
<title>UserModule</title>
<polygon fill="#8dd3c7" stroke="black" points="482.99,-149.8 479.99,-153.8 458.99,-153.8 455.99,-149.8 397.01,-149.8 397.01,-113.8 482.99,-113.8 482.99,-149.8"/>
<text text-anchor="middle" x="440" y="-127.6" font-family="Times,serif" font-size="14.00">UserModule</text>
</g>
<!-- ChangePasswordComponent&#45;&gt;UserModule -->
<g id="edge1" class="edge">
<title>ChangePasswordComponent&#45;&gt;UserModule</title>
<path fill="none" stroke="black" d="M458.06,-84.91C458.06,-84.91 458.06,-103.79 458.06,-103.79"/>
<polygon fill="black" stroke="black" points="454.56,-103.79 458.06,-113.79 461.56,-103.79 454.56,-103.79"/>
</g>
<!-- LoginComponent -->
<g id="node2" class="node">
<title>LoginComponent</title>
<polygon fill="#ffffb3" stroke="black" points="415.27,-84.8 300.73,-84.8 300.73,-48.8 415.27,-48.8 415.27,-84.8"/>
<text text-anchor="middle" x="358" y="-62.6" font-family="Times,serif" font-size="14.00">LoginComponent</text>
</g>
<!-- LoginComponent&#45;&gt;UserModule -->
<g id="edge2" class="edge">
<title>LoginComponent&#45;&gt;UserModule</title>
<path fill="none" stroke="black" d="M406.2,-84.91C406.2,-84.91 406.2,-103.79 406.2,-103.79"/>
<polygon fill="black" stroke="black" points="402.7,-103.79 406.2,-113.79 409.7,-103.79 402.7,-103.79"/>
</g>
<!-- ProfileComponent -->
<g id="node3" class="node">
<title>ProfileComponent</title>
<polygon fill="#ffffb3" stroke="black" points="282.94,-84.8 163.06,-84.8 163.06,-48.8 282.94,-48.8 282.94,-84.8"/>
<text text-anchor="middle" x="223" y="-62.6" font-family="Times,serif" font-size="14.00">ProfileComponent</text>
</g>
<!-- ProfileComponent&#45;&gt;UserModule -->
<g id="edge3" class="edge">
<title>ProfileComponent&#45;&gt;UserModule</title>
<path fill="none" stroke="black" d="M223,-84.82C223,-102.17 223,-125.8 223,-125.8 223,-125.8 386.87,-125.8 386.87,-125.8"/>
<polygon fill="black" stroke="black" points="386.87,-129.3 396.87,-125.8 386.87,-122.3 386.87,-129.3"/>
</g>
<!-- SignupComponent -->
<g id="node4" class="node">
<title>SignupComponent</title>
<polygon fill="#ffffb3" stroke="black" points="145.51,-84.8 24.49,-84.8 24.49,-48.8 145.51,-48.8 145.51,-84.8"/>
<text text-anchor="middle" x="85" y="-62.6" font-family="Times,serif" font-size="14.00">SignupComponent</text>
</g>
<!-- SignupComponent&#45;&gt;UserModule -->
<g id="edge4" class="edge">
<title>SignupComponent&#45;&gt;UserModule</title>
<path fill="none" stroke="black" d="M85,-85.08C85,-106.12 85,-137.8 85,-137.8 85,-137.8 386.82,-137.8 386.82,-137.8"/>
<polygon fill="black" stroke="black" points="386.82,-141.3 396.82,-137.8 386.82,-134.3 386.82,-141.3"/>
</g>
<!-- AppRoutingModule -->
<g id="node6" class="node">
<title>AppRoutingModule</title>
<polygon fill="#8dd3c7" stroke="black" points="903.28,-84.8 900.28,-88.8 879.28,-88.8 876.28,-84.8 774.72,-84.8 774.72,-48.8 903.28,-48.8 903.28,-84.8"/>
<text text-anchor="middle" x="839" y="-62.6" font-family="Times,serif" font-size="14.00">AppRoutingModule</text>
</g>
<!-- AppRoutingModule&#45;&gt;UserModule -->
<g id="edge5" class="edge">
<title>AppRoutingModule&#45;&gt;UserModule</title>
<path fill="none" stroke="black" d="M839,-85.08C839,-106.12 839,-137.8 839,-137.8 839,-137.8 493.08,-137.8 493.08,-137.8"/>
<polygon fill="black" stroke="black" points="493.08,-134.3 483.08,-137.8 493.08,-141.3 493.08,-134.3"/>
</g>
<!-- UserService -->
<g id="node7" class="node">
<title>UserService</title>
<ellipse fill="#fdb462" stroke="black" cx="693" cy="-66.8" rx="58.46" ry="18"/>
<text text-anchor="middle" x="693" y="-62.6" font-family="Times,serif" font-size="14.00">UserService</text>
</g>
<!-- UserService&#45;&gt;UserModule -->
<g id="edge6" class="edge">
<title>UserService&#45;&gt;UserModule</title>
<path fill="none" stroke="black" d="M693,-84.82C693,-102.17 693,-125.8 693,-125.8 693,-125.8 493.2,-125.8 493.2,-125.8"/>
<polygon fill="black" stroke="black" points="493.2,-122.3 483.2,-125.8 493.2,-129.3 493.2,-122.3"/>
</g>
</g>
</svg>
