<?xml version="1.0" encoding="UTF-8" standalone="no"?>
<!DOCTYPE svg PUBLIC "-//W3C//DTD SVG 1.1//EN"
 "http://www.w3.org/Graphics/SVG/1.1/DTD/svg11.dtd">
<!-- Generated by graphviz version 5.0.0 (20220707.1540)
 -->
<!-- Title: dependencies Pages: 1 -->
<svg width="146pt" height="174pt"
 viewBox="0.00 0.00 146.00 173.80" xmlns="http://www.w3.org/2000/svg" xmlns:xlink="http://www.w3.org/1999/xlink">
<g id="graph0" class="graph" transform="scale(1 1) rotate(0) translate(4 169.8)">
<title>dependencies</title>
<polygon fill="white" stroke="transparent" points="-4,4 -4,-169.8 142,-169.8 142,4 -4,4"/>
<text text-anchor="middle" x="69" y="-8.2" font-family="sans-serif" font-size="14.00">dependencies</text>
<g id="clust1" class="cluster">
<title>cluster_AboutModule</title>
<polygon fill="none" stroke="black" stroke-dasharray="1,5" points="8,-32.8 8,-157.8 130,-157.8 130,-32.8 8,-32.8"/>
</g>
<g id="clust2" class="cluster">
<title>cluster_AboutModule_declarations</title>
<polygon fill="none" stroke="black" points="16,-40.8 16,-92.8 122,-92.8 122,-40.8 16,-40.8"/>
</g>
<!-- OrderByPipe -->
<g id="node1" class="node">
<title>OrderByPipe</title>
<polygon fill="#ffffb3" stroke="black" points="113.88,-84.8 24.12,-84.8 24.12,-48.8 113.88,-48.8 113.88,-84.8"/>
<text text-anchor="middle" x="69" y="-62.6" font-family="Times,serif" font-size="14.00">OrderByPipe</text>
</g>
<!-- AboutModule -->
<g id="node2" class="node">
<title>AboutModule</title>
<polygon fill="#8dd3c7" stroke="black" points="116.05,-149.8 113.05,-153.8 92.05,-153.8 89.05,-149.8 21.95,-149.8 21.95,-113.8 116.05,-113.8 116.05,-149.8"/>
<text text-anchor="middle" x="69" y="-127.6" font-family="Times,serif" font-size="14.00">AboutModule</text>
</g>
<!-- OrderByPipe&#45;&gt;AboutModule -->
<g id="edge1" class="edge">
<title>OrderByPipe&#45;&gt;AboutModule</title>
<path fill="none" stroke="black" d="M69,-84.91C69,-84.91 69,-103.79 69,-103.79"/>
<polygon fill="black" stroke="black" points="65.5,-103.79 69,-113.79 72.5,-103.79 65.5,-103.79"/>
</g>
</g>
</svg>
