<?xml version="1.0" encoding="UTF-8" standalone="no"?>
<!DOCTYPE svg PUBLIC "-//W3C//DTD SVG 1.1//EN"
 "http://www.w3.org/Graphics/SVG/1.1/DTD/svg11.dtd">
<!-- Generated by graphviz version 5.0.0 (20220707.1540)
 -->
<!-- Title: dependencies Pages: 1 -->
<svg width="2945pt" height="315pt"
 viewBox="0.00 0.00 2945.00 314.80" xmlns="http://www.w3.org/2000/svg" xmlns:xlink="http://www.w3.org/1999/xlink">
<g id="graph0" class="graph" transform="scale(1 1) rotate(0) translate(4 310.8)">
<title>dependencies</title>
<polygon fill="white" stroke="transparent" points="-4,4 -4,-310.8 2941,-310.8 2941,4 -4,4"/>
<text text-anchor="middle" x="1468.5" y="-8.2" font-family="sans-serif" font-size="14.00">dependencies</text>
<g id="clust1" class="cluster">
<title>cluster_AppModule</title>
<polygon fill="none" stroke="black" stroke-dasharray="1,5" points="8,-32.8 8,-298.8 826,-298.8 826,-32.8 8,-32.8"/>
</g>
<g id="clust2" class="cluster">
<title>cluster_AppModule_declarations</title>
<polygon fill="none" stroke="black" points="537,-108.8 537,-160.8 818,-160.8 818,-108.8 537,-108.8"/>
</g>
<g id="clust5" class="cluster">
<title>cluster_AppModule_imports</title>
<polygon fill="none" stroke="black" points="28,-40.8 28,-160.8 529,-160.8 529,-40.8 28,-40.8"/>
</g>
<g id="clust7" class="cluster">
<title>cluster_AppModule_bootstrap</title>
<polygon fill="none" stroke="black" points="292,-238.8 292,-290.8 416,-290.8 416,-238.8 292,-238.8"/>
</g>
<g id="clust15" class="cluster">
<title>cluster_ListingModule</title>
<polygon fill="none" stroke="black" stroke-dasharray="1,5" points="1242,-32.8 1242,-100.8 1773,-100.8 1773,-32.8 1242,-32.8"/>
</g>
<g id="clust16" class="cluster">
<title>cluster_ListingModule_declarations</title>
<polygon fill="none" stroke="black" points="1250,-40.8 1250,-92.8 1765,-92.8 1765,-40.8 1250,-40.8"/>
</g>
<g id="clust24" class="cluster">
<title>cluster_TaxonomyModule</title>
<polygon fill="none" stroke="black" stroke-dasharray="1,5" points="834,-32.8 834,-100.8 1234,-100.8 1234,-32.8 834,-32.8"/>
</g>
<g id="clust25" class="cluster">
<title>cluster_TaxonomyModule_declarations</title>
<polygon fill="none" stroke="black" points="960,-40.8 960,-92.8 1226,-92.8 1226,-40.8 960,-40.8"/>
</g>
<g id="clust29" class="cluster">
<title>cluster_TaxonomyModule_exports</title>
<polygon fill="none" stroke="black" points="842,-40.8 842,-92.8 952,-92.8 952,-40.8 842,-40.8"/>
</g>
<g id="clust32" class="cluster">
<title>cluster_TransactionModule</title>
<polygon fill="none" stroke="black" stroke-dasharray="1,5" points="1781,-32.8 1781,-100.8 2162,-100.8 2162,-32.8 1781,-32.8"/>
</g>
<g id="clust33" class="cluster">
<title>cluster_TransactionModule_declarations</title>
<polygon fill="none" stroke="black" points="1789,-40.8 1789,-92.8 2154,-92.8 2154,-40.8 1789,-40.8"/>
</g>
<g id="clust40" class="cluster">
<title>cluster_UserModule</title>
<polygon fill="none" stroke="black" stroke-dasharray="1,5" points="2170,-32.8 2170,-100.8 2929,-100.8 2929,-32.8 2170,-32.8"/>
</g>
<g id="clust41" class="cluster">
<title>cluster_UserModule_declarations</title>
<polygon fill="none" stroke="black" points="2318,-40.8 2318,-92.8 2921,-92.8 2921,-40.8 2318,-40.8"/>
</g>
<g id="clust49" class="cluster">
<title>cluster_UserModule_providers</title>
<polygon fill="none" stroke="black" points="2178,-40.8 2178,-92.8 2310,-92.8 2310,-40.8 2178,-40.8"/>
</g>
<!-- AppComponent -->
<g id="node1" class="node">
<title>AppComponent</title>
<polygon fill="#ffffb3" stroke="black" points="809.94,-152.8 704.06,-152.8 704.06,-116.8 809.94,-116.8 809.94,-152.8"/>
<text text-anchor="middle" x="757" y="-130.6" font-family="Times,serif" font-size="14.00">AppComponent</text>
</g>
<!-- AppModule -->
<g id="node3" class="node">
<title>AppModule</title>
<polygon fill="#8dd3c7" stroke="black" points="395.66,-217.8 392.66,-221.8 371.66,-221.8 368.66,-217.8 312.34,-217.8 312.34,-181.8 395.66,-181.8 395.66,-217.8"/>
<text text-anchor="middle" x="354" y="-195.6" font-family="Times,serif" font-size="14.00">AppModule</text>
</g>
<!-- AppComponent&#45;&gt;AppModule -->
<g id="edge1" class="edge">
<title>AppComponent&#45;&gt;AppModule</title>
<path fill="none" stroke="black" d="M757,-153.09C757,-175.01 757,-208.8 757,-208.8 757,-208.8 405.99,-208.8 405.99,-208.8"/>
<polygon fill="black" stroke="black" points="405.99,-205.3 395.99,-208.8 405.99,-212.3 405.99,-205.3"/>
</g>
<!-- CategoriesComponent -->
<g id="node2" class="node">
<title>CategoriesComponent</title>
<polygon fill="#ffffb3" stroke="black" points="686.7,-152.8 545.3,-152.8 545.3,-116.8 686.7,-116.8 686.7,-152.8"/>
<text text-anchor="middle" x="616" y="-130.6" font-family="Times,serif" font-size="14.00">CategoriesComponent</text>
</g>
<!-- CategoriesComponent&#45;&gt;AppModule -->
<g id="edge2" class="edge">
<title>CategoriesComponent&#45;&gt;AppModule</title>
<path fill="none" stroke="black" d="M616,-152.91C616,-172.14 616,-199.8 616,-199.8 616,-199.8 405.8,-199.8 405.8,-199.8"/>
<polygon fill="black" stroke="black" points="405.8,-196.3 395.8,-199.8 405.8,-203.3 405.8,-196.3"/>
</g>
<!-- AppComponent  -->
<g id="node9" class="node">
<title>AppComponent </title>
<polygon fill="#80b1d3" stroke="black" points="408.44,-282.8 299.56,-282.8 299.56,-246.8 408.44,-246.8 408.44,-282.8"/>
<text text-anchor="middle" x="354" y="-260.6" font-family="Times,serif" font-size="14.00">AppComponent </text>
</g>
<!-- AppModule&#45;&gt;AppComponent  -->
<g id="edge8" class="edge">
<title>AppModule&#45;&gt;AppComponent </title>
<path fill="none" stroke="black" stroke-dasharray="1,5" d="M354,-217.91C354,-217.91 354,-236.79 354,-236.79"/>
<polygon fill="black" stroke="black" points="350.5,-236.79 354,-246.79 357.5,-236.79 350.5,-236.79"/>
</g>
<!-- AppRoutingModule -->
<g id="node4" class="node">
<title>AppRoutingModule</title>
<polygon fill="#8dd3c7" stroke="black" points="288.28,-84.8 285.28,-88.8 264.28,-88.8 261.28,-84.8 159.72,-84.8 159.72,-48.8 288.28,-48.8 288.28,-84.8"/>
<text text-anchor="middle" x="224" y="-62.6" font-family="Times,serif" font-size="14.00">AppRoutingModule</text>
</g>
<!-- AppRoutingModule&#45;&gt;AppModule -->
<g id="edge3" class="edge">
<title>AppRoutingModule&#45;&gt;AppModule</title>
<path fill="none" stroke="black" d="M278.54,-84.83C278.54,-119.22 278.54,-190.8 278.54,-190.8 278.54,-190.8 302.3,-190.8 302.3,-190.8"/>
<polygon fill="black" stroke="black" points="302.3,-194.3 312.3,-190.8 302.3,-187.3 302.3,-194.3"/>
</g>
<!-- ListingModule -->
<g id="node5" class="node">
<title>ListingModule</title>
<polygon fill="#8dd3c7" stroke="black" points="273.72,-152.8 270.72,-156.8 249.72,-156.8 246.72,-152.8 174.28,-152.8 174.28,-116.8 273.72,-116.8 273.72,-152.8"/>
<text text-anchor="middle" x="224" y="-130.6" font-family="Times,serif" font-size="14.00">ListingModule</text>
</g>
<!-- AppRoutingModule&#45;&gt;ListingModule -->
<g id="edge12" class="edge">
<title>AppRoutingModule&#45;&gt;ListingModule</title>
<path fill="none" stroke="black" d="M194.23,-85.02C194.23,-85.02 194.23,-106.53 194.23,-106.53"/>
<polygon fill="black" stroke="black" points="190.73,-106.53 194.23,-116.53 197.73,-106.53 190.73,-106.53"/>
</g>
<!-- TaxonomyModule -->
<g id="node6" class="node">
<title>TaxonomyModule</title>
<polygon fill="#8dd3c7" stroke="black" points="156.21,-152.8 153.21,-156.8 132.21,-156.8 129.21,-152.8 35.79,-152.8 35.79,-116.8 156.21,-116.8 156.21,-152.8"/>
<text text-anchor="middle" x="96" y="-130.6" font-family="Times,serif" font-size="14.00">TaxonomyModule</text>
</g>
<!-- AppRoutingModule&#45;&gt;TaxonomyModule -->
<g id="edge15" class="edge">
<title>AppRoutingModule&#45;&gt;TaxonomyModule</title>
<path fill="none" stroke="black" d="M167,-85.02C167,-105.17 167,-134.8 167,-134.8 167,-134.8 165.92,-134.8 165.92,-134.8"/>
<polygon fill="black" stroke="black" points="166.22,-131.3 156.22,-134.8 166.22,-138.3 166.22,-131.3"/>
</g>
<!-- TransactionModule -->
<g id="node7" class="node">
<title>TransactionModule</title>
<polygon fill="#8dd3c7" stroke="black" points="416.64,-152.8 413.64,-156.8 392.64,-156.8 389.64,-152.8 291.36,-152.8 291.36,-116.8 416.64,-116.8 416.64,-152.8"/>
<text text-anchor="middle" x="354" y="-130.6" font-family="Times,serif" font-size="14.00">TransactionModule</text>
</g>
<!-- AppRoutingModule&#45;&gt;TransactionModule -->
<g id="edge19" class="edge">
<title>AppRoutingModule&#45;&gt;TransactionModule</title>
<path fill="none" stroke="black" d="M283.46,-85.02C283.46,-105.17 283.46,-134.8 283.46,-134.8 283.46,-134.8 284.25,-134.8 284.25,-134.8"/>
<polygon fill="black" stroke="black" points="281.28,-138.3 291.28,-134.8 281.28,-131.3 281.28,-138.3"/>
</g>
<!-- UserModule -->
<g id="node8" class="node">
<title>UserModule</title>
<polygon fill="#8dd3c7" stroke="black" points="520.99,-152.8 517.99,-156.8 496.99,-156.8 493.99,-152.8 435.01,-152.8 435.01,-116.8 520.99,-116.8 520.99,-152.8"/>
<text text-anchor="middle" x="478" y="-130.6" font-family="Times,serif" font-size="14.00">UserModule</text>
</g>
<!-- AppRoutingModule&#45;&gt;UserModule -->
<g id="edge24" class="edge">
<title>AppRoutingModule&#45;&gt;UserModule</title>
<path fill="none" stroke="black" d="M288.29,-66.8C354.25,-66.8 447.29,-66.8 447.29,-66.8 447.29,-66.8 447.29,-106.58 447.29,-106.58"/>
<polygon fill="black" stroke="black" points="443.79,-106.58 447.29,-116.58 450.79,-106.58 443.79,-106.58"/>
</g>
<!-- ListingModule&#45;&gt;AppModule -->
<g id="edge4" class="edge">
<title>ListingModule&#45;&gt;AppModule</title>
<path fill="none" stroke="black" d="M224,-152.91C224,-172.14 224,-199.8 224,-199.8 224,-199.8 302.15,-199.8 302.15,-199.8"/>
<polygon fill="black" stroke="black" points="302.15,-203.3 312.15,-199.8 302.15,-196.3 302.15,-203.3"/>
</g>
<!-- TaxonomyModule&#45;&gt;AppModule -->
<g id="edge5" class="edge">
<title>TaxonomyModule&#45;&gt;AppModule</title>
<path fill="none" stroke="black" d="M96,-153.09C96,-175.01 96,-208.8 96,-208.8 96,-208.8 302.26,-208.8 302.26,-208.8"/>
<polygon fill="black" stroke="black" points="302.26,-212.3 312.26,-208.8 302.26,-205.3 302.26,-212.3"/>
</g>
<!-- OrderByPipe  -->
<g id="node15" class="node">
<title>OrderByPipe </title>
<polygon fill="#fb8072" stroke="black" points="943.88,-84.8 850.12,-84.8 850.12,-48.8 943.88,-48.8 943.88,-84.8"/>
<text text-anchor="middle" x="897" y="-62.6" font-family="Times,serif" font-size="14.00">OrderByPipe </text>
</g>
<!-- TaxonomyModule&#45;&gt;OrderByPipe  -->
<g id="edge16" class="edge">
<title>TaxonomyModule&#45;&gt;OrderByPipe </title>
<path fill="none" stroke="black" stroke-dasharray="5,2" d="M126.05,-116.76C126.05,-103.51 126.05,-87.8 126.05,-87.8 126.05,-87.8 897,-87.8 897,-87.8 897,-87.8 897,-87.51 897,-87.51"/>
<polygon fill="black" stroke="black" points="900.5,-94.88 897,-84.88 893.5,-94.88 900.5,-94.88"/>
</g>
<!-- TransactionModule&#45;&gt;AppModule -->
<g id="edge6" class="edge">
<title>TransactionModule&#45;&gt;AppModule</title>
<path fill="none" stroke="black" d="M354,-152.91C354,-152.91 354,-171.79 354,-171.79"/>
<polygon fill="black" stroke="black" points="350.5,-171.79 354,-181.79 357.5,-171.79 350.5,-171.79"/>
</g>
<!-- UserModule&#45;&gt;AppModule -->
<g id="edge7" class="edge">
<title>UserModule&#45;&gt;AppModule</title>
<path fill="none" stroke="black" d="M478,-152.83C478,-169.2 478,-190.8 478,-190.8 478,-190.8 405.98,-190.8 405.98,-190.8"/>
<polygon fill="black" stroke="black" points="405.98,-187.3 395.98,-190.8 405.98,-194.3 405.98,-187.3"/>
</g>
<!-- CreateEditListingComponent -->
<g id="node10" class="node">
<title>CreateEditListingComponent</title>
<polygon fill="#ffffb3" stroke="black" points="1612.36,-84.8 1431.64,-84.8 1431.64,-48.8 1612.36,-48.8 1612.36,-84.8"/>
<text text-anchor="middle" x="1522" y="-62.6" font-family="Times,serif" font-size="14.00">CreateEditListingComponent</text>
</g>
<!-- CreateEditListingComponent&#45;&gt;ListingModule -->
<g id="edge9" class="edge">
<title>CreateEditListingComponent&#45;&gt;ListingModule</title>
<path fill="none" stroke="black" d="M1522,-84.94C1522,-91.26 1522,-96.8 1522,-96.8 1522,-96.8 233.92,-96.8 233.92,-96.8 233.92,-96.8 233.92,-106.69 233.92,-106.69"/>
<polygon fill="black" stroke="black" points="230.42,-106.69 233.92,-116.69 237.42,-106.69 230.42,-106.69"/>
</g>
<!-- ListingDetailComponent -->
<g id="node11" class="node">
<title>ListingDetailComponent</title>
<polygon fill="#ffffb3" stroke="black" points="1413.71,-84.8 1258.29,-84.8 1258.29,-48.8 1413.71,-48.8 1413.71,-84.8"/>
<text text-anchor="middle" x="1336" y="-62.6" font-family="Times,serif" font-size="14.00">ListingDetailComponent</text>
</g>
<!-- ListingDetailComponent&#45;&gt;ListingModule -->
<g id="edge10" class="edge">
<title>ListingDetailComponent&#45;&gt;ListingModule</title>
<path fill="none" stroke="black" d="M1336,-85.01C1336,-90.35 1336,-94.8 1336,-94.8 1336,-94.8 214.08,-94.8 214.08,-94.8 214.08,-94.8 214.08,-106.67 214.08,-106.67"/>
<polygon fill="black" stroke="black" points="210.58,-106.67 214.08,-116.67 217.58,-106.67 210.58,-106.67"/>
</g>
<!-- ListingsComponent -->
<g id="node12" class="node">
<title>ListingsComponent</title>
<polygon fill="#ffffb3" stroke="black" points="1757.45,-84.8 1630.55,-84.8 1630.55,-48.8 1757.45,-48.8 1757.45,-84.8"/>
<text text-anchor="middle" x="1694" y="-62.6" font-family="Times,serif" font-size="14.00">ListingsComponent</text>
</g>
<!-- ListingsComponent&#45;&gt;ListingModule -->
<g id="edge11" class="edge">
<title>ListingsComponent&#45;&gt;ListingModule</title>
<path fill="none" stroke="black" d="M1694,-85.04C1694,-92.23 1694,-98.8 1694,-98.8 1694,-98.8 253.77,-98.8 253.77,-98.8 253.77,-98.8 253.77,-106.38 253.77,-106.38"/>
<polygon fill="black" stroke="black" points="250.27,-106.38 253.77,-116.38 257.27,-106.38 250.27,-106.38"/>
</g>
<!-- OrderByPipe -->
<g id="node13" class="node">
<title>OrderByPipe</title>
<polygon fill="#ffffb3" stroke="black" points="1217.88,-84.8 1128.12,-84.8 1128.12,-48.8 1217.88,-48.8 1217.88,-84.8"/>
<text text-anchor="middle" x="1173" y="-62.6" font-family="Times,serif" font-size="14.00">OrderByPipe</text>
</g>
<!-- OrderByPipe&#45;&gt;TaxonomyModule -->
<g id="edge13" class="edge">
<title>OrderByPipe&#45;&gt;TaxonomyModule</title>
<path fill="none" stroke="black" d="M1173,-84.97C1173,-88.85 1173,-91.8 1173,-91.8 1173,-91.8 96,-91.8 96,-91.8 96,-91.8 96,-106.31 96,-106.31"/>
<polygon fill="black" stroke="black" points="92.5,-106.31 96,-116.31 99.5,-106.31 92.5,-106.31"/>
</g>
<!-- TaxonomyComponent -->
<g id="node14" class="node">
<title>TaxonomyComponent</title>
<polygon fill="#ffffb3" stroke="black" points="1109.99,-84.8 968.01,-84.8 968.01,-48.8 1109.99,-48.8 1109.99,-84.8"/>
<text text-anchor="middle" x="1039" y="-62.6" font-family="Times,serif" font-size="14.00">TaxonomyComponent</text>
</g>
<!-- TaxonomyComponent&#45;&gt;TaxonomyModule -->
<g id="edge14" class="edge">
<title>TaxonomyComponent&#45;&gt;TaxonomyModule</title>
<path fill="none" stroke="black" d="M1039,-84.92C1039,-87.77 1039,-89.8 1039,-89.8 1039,-89.8 65.95,-89.8 65.95,-89.8 65.95,-89.8 65.95,-106.76 65.95,-106.76"/>
<polygon fill="black" stroke="black" points="62.45,-106.76 65.95,-116.76 69.45,-106.76 62.45,-106.76"/>
</g>
<!-- TransactiondetailComponent -->
<g id="node16" class="node">
<title>TransactiondetailComponent</title>
<polygon fill="#ffffb3" stroke="black" points="2146.01,-84.8 1967.99,-84.8 1967.99,-48.8 2146.01,-48.8 2146.01,-84.8"/>
<text text-anchor="middle" x="2057" y="-62.6" font-family="Times,serif" font-size="14.00">TransactiondetailComponent</text>
</g>
<!-- TransactiondetailComponent&#45;&gt;TransactionModule -->
<g id="edge17" class="edge">
<title>TransactiondetailComponent&#45;&gt;TransactionModule</title>
<path fill="none" stroke="black" d="M2057,-84.87C2057,-94.26 2057,-103.8 2057,-103.8 2057,-103.8 374.94,-103.8 374.94,-103.8 374.94,-103.8 374.94,-106.77 374.94,-106.77"/>
<polygon fill="black" stroke="black" points="371.44,-106.77 374.94,-116.77 378.44,-106.77 371.44,-106.77"/>
</g>
<!-- TransactionsComponent -->
<g id="node17" class="node">
<title>TransactionsComponent</title>
<polygon fill="#ffffb3" stroke="black" points="1949.36,-84.8 1796.64,-84.8 1796.64,-48.8 1949.36,-48.8 1949.36,-84.8"/>
<text text-anchor="middle" x="1873" y="-62.6" font-family="Times,serif" font-size="14.00">TransactionsComponent</text>
</g>
<!-- TransactionsComponent&#45;&gt;TransactionModule -->
<g id="edge18" class="edge">
<title>TransactionsComponent&#45;&gt;TransactionModule</title>
<path fill="none" stroke="black" d="M1873,-84.99C1873,-93.08 1873,-100.8 1873,-100.8 1873,-100.8 333.06,-100.8 333.06,-100.8 333.06,-100.8 333.06,-106.61 333.06,-106.61"/>
<polygon fill="black" stroke="black" points="329.56,-106.61 333.06,-116.61 336.56,-106.61 329.56,-106.61"/>
</g>
<!-- ChangePasswordComponent -->
<g id="node18" class="node">
<title>ChangePasswordComponent</title>
<polygon fill="#ffffb3" stroke="black" points="2912.77,-84.8 2735.23,-84.8 2735.23,-48.8 2912.77,-48.8 2912.77,-84.8"/>
<text text-anchor="middle" x="2824" y="-62.6" font-family="Times,serif" font-size="14.00">ChangePasswordComponent</text>
</g>
<!-- ChangePasswordComponent&#45;&gt;UserModule -->
<g id="edge20" class="edge">
<title>ChangePasswordComponent&#45;&gt;UserModule</title>
<path fill="none" stroke="black" d="M2824,-84.95C2824,-98.54 2824,-114.8 2824,-114.8 2824,-114.8 508.71,-114.8 508.71,-114.8 508.71,-114.8 508.71,-114.98 508.71,-114.98"/>
<polygon fill="black" stroke="black" points="505.21,-106.65 508.71,-116.65 512.21,-106.65 505.21,-106.65"/>
</g>
<!-- LoginComponent -->
<g id="node19" class="node">
<title>LoginComponent</title>
<polygon fill="#ffffb3" stroke="black" points="2717.27,-84.8 2602.73,-84.8 2602.73,-48.8 2717.27,-48.8 2717.27,-84.8"/>
<text text-anchor="middle" x="2660" y="-62.6" font-family="Times,serif" font-size="14.00">LoginComponent</text>
</g>
<!-- LoginComponent&#45;&gt;UserModule -->
<g id="edge21" class="edge">
<title>LoginComponent&#45;&gt;UserModule</title>
<path fill="none" stroke="black" d="M2660,-84.98C2660,-97.84 2660,-112.8 2660,-112.8 2660,-112.8 496.43,-112.8 496.43,-112.8 496.43,-112.8 496.43,-113.18 496.43,-113.18"/>
<polygon fill="black" stroke="black" points="492.93,-106.63 496.43,-116.63 499.93,-106.63 492.93,-106.63"/>
</g>
<!-- ProfileComponent -->
<g id="node20" class="node">
<title>ProfileComponent</title>
<polygon fill="#ffffb3" stroke="black" points="2584.94,-84.8 2465.06,-84.8 2465.06,-48.8 2584.94,-48.8 2584.94,-84.8"/>
<text text-anchor="middle" x="2525" y="-62.6" font-family="Times,serif" font-size="14.00">ProfileComponent</text>
</g>
<!-- ProfileComponent&#45;&gt;UserModule -->
<g id="edge22" class="edge">
<title>ProfileComponent&#45;&gt;UserModule</title>
<path fill="none" stroke="black" d="M2525,-84.95C2525,-97.07 2525,-110.8 2525,-110.8 2525,-110.8 484.14,-110.8 484.14,-110.8 484.14,-110.8 484.14,-111.38 484.14,-111.38"/>
<polygon fill="black" stroke="black" points="480.64,-106.61 484.14,-116.61 487.64,-106.61 480.64,-106.61"/>
</g>
<!-- SignupComponent -->
<g id="node21" class="node">
<title>SignupComponent</title>
<polygon fill="#ffffb3" stroke="black" points="2447.51,-84.8 2326.49,-84.8 2326.49,-48.8 2447.51,-48.8 2447.51,-84.8"/>
<text text-anchor="middle" x="2387" y="-62.6" font-family="Times,serif" font-size="14.00">SignupComponent</text>
</g>
<!-- SignupComponent&#45;&gt;UserModule -->
<g id="edge23" class="edge">
<title>SignupComponent&#45;&gt;UserModule</title>
<path fill="none" stroke="black" d="M2387,-84.9C2387,-95.89 2387,-107.8 2387,-107.8 2387,-107.8 471.86,-107.8 471.86,-107.8 471.86,-107.8 471.86,-108.68 471.86,-108.68"/>
<polygon fill="black" stroke="black" points="468.36,-106.64 471.86,-116.64 475.36,-106.64 468.36,-106.64"/>
</g>
<!-- UserService -->
<g id="node22" class="node">
<title>UserService</title>
<ellipse fill="#fdb462" stroke="black" cx="2244" cy="-66.8" rx="58.46" ry="18"/>
<text text-anchor="middle" x="2244" y="-62.6" font-family="Times,serif" font-size="14.00">UserService</text>
</g>
<!-- UserService&#45;&gt;UserModule -->
<g id="edge25" class="edge">
<title>UserService&#45;&gt;UserModule</title>
<path fill="none" stroke="black" d="M2244,-84.93C2244,-95.11 2244,-105.8 2244,-105.8 2244,-105.8 459.57,-105.8 459.57,-105.8 459.57,-105.8 459.57,-106.88 459.57,-106.88"/>
<polygon fill="black" stroke="black" points="456.07,-106.6 459.57,-116.6 463.07,-106.6 456.07,-106.6"/>
</g>
</g>
</svg>
