<?xml version="1.0" encoding="UTF-8" standalone="no"?>
<!DOCTYPE svg PUBLIC "-//W3C//DTD SVG 1.1//EN"
 "http://www.w3.org/Graphics/SVG/1.1/DTD/svg11.dtd">
<!-- Generated by graphviz version 5.0.0 (20220707.1540)
 -->
<!-- Title: dependencies Pages: 1 -->
<svg width="458pt" height="247pt"
 viewBox="0.00 0.00 458.00 246.80" xmlns="http://www.w3.org/2000/svg" xmlns:xlink="http://www.w3.org/1999/xlink">
<g id="graph0" class="graph" transform="scale(1 1) rotate(0) translate(4 242.8)">
<title>dependencies</title>
<polygon fill="white" stroke="transparent" points="-4,4 -4,-242.8 454,-242.8 454,4 -4,4"/>
<text text-anchor="middle" x="225" y="-8.2" font-family="sans-serif" font-size="14.00">dependencies</text>
<g id="clust1" class="cluster">
<title>cluster_TaxonomyModule</title>
<polygon fill="none" stroke="black" stroke-dasharray="1,5" points="8,-32.8 8,-230.8 442,-230.8 442,-32.8 8,-32.8"/>
</g>
<g id="clust5" class="cluster">
<title>cluster_TaxonomyModule_imports</title>
<polygon fill="none" stroke="black" points="290,-40.8 290,-92.8 434,-92.8 434,-40.8 290,-40.8"/>
</g>
<g id="clust2" class="cluster">
<title>cluster_TaxonomyModule_declarations</title>
<polygon fill="none" stroke="black" points="16,-40.8 16,-92.8 282,-92.8 282,-40.8 16,-40.8"/>
</g>
<g id="clust6" class="cluster">
<title>cluster_TaxonomyModule_exports</title>
<polygon fill="none" stroke="black" points="174,-170.8 174,-222.8 284,-222.8 284,-170.8 174,-170.8"/>
</g>
<!-- OrderByPipe -->
<g id="node1" class="node">
<title>OrderByPipe</title>
<polygon fill="#ffffb3" stroke="black" points="273.88,-84.8 184.12,-84.8 184.12,-48.8 273.88,-48.8 273.88,-84.8"/>
<text text-anchor="middle" x="229" y="-62.6" font-family="Times,serif" font-size="14.00">OrderByPipe</text>
</g>
<!-- TaxonomyModule -->
<g id="node3" class="node">
<title>TaxonomyModule</title>
<polygon fill="#8dd3c7" stroke="black" points="289.21,-149.8 286.21,-153.8 265.21,-153.8 262.21,-149.8 168.79,-149.8 168.79,-113.8 289.21,-113.8 289.21,-149.8"/>
<text text-anchor="middle" x="229" y="-127.6" font-family="Times,serif" font-size="14.00">TaxonomyModule</text>
</g>
<!-- OrderByPipe&#45;&gt;TaxonomyModule -->
<g id="edge1" class="edge">
<title>OrderByPipe&#45;&gt;TaxonomyModule</title>
<path fill="none" stroke="black" d="M229,-84.91C229,-84.91 229,-103.79 229,-103.79"/>
<polygon fill="black" stroke="black" points="225.5,-103.79 229,-113.79 232.5,-103.79 225.5,-103.79"/>
</g>
<!-- TaxonomyComponent -->
<g id="node2" class="node">
<title>TaxonomyComponent</title>
<polygon fill="#ffffb3" stroke="black" points="165.99,-84.8 24.01,-84.8 24.01,-48.8 165.99,-48.8 165.99,-84.8"/>
<text text-anchor="middle" x="95" y="-62.6" font-family="Times,serif" font-size="14.00">TaxonomyComponent</text>
</g>
<!-- TaxonomyComponent&#45;&gt;TaxonomyModule -->
<g id="edge2" class="edge">
<title>TaxonomyComponent&#45;&gt;TaxonomyModule</title>
<path fill="none" stroke="black" d="M166.16,-66.8C172.44,-66.8 176.48,-66.8 176.48,-66.8 176.48,-66.8 176.48,-103.69 176.48,-103.69"/>
<polygon fill="black" stroke="black" points="172.98,-103.69 176.48,-113.69 179.98,-103.69 172.98,-103.69"/>
</g>
<!-- OrderByPipe  -->
<g id="node5" class="node">
<title>OrderByPipe </title>
<polygon fill="#fb8072" stroke="black" points="275.88,-214.8 182.12,-214.8 182.12,-178.8 275.88,-178.8 275.88,-214.8"/>
<text text-anchor="middle" x="229" y="-192.6" font-family="Times,serif" font-size="14.00">OrderByPipe </text>
</g>
<!-- TaxonomyModule&#45;&gt;OrderByPipe  -->
<g id="edge4" class="edge">
<title>TaxonomyModule&#45;&gt;OrderByPipe </title>
<path fill="none" stroke="black" stroke-dasharray="5,2" d="M229,-149.91C229,-149.91 229,-168.79 229,-168.79"/>
<polygon fill="black" stroke="black" points="225.5,-168.79 229,-178.79 232.5,-168.79 225.5,-168.79"/>
</g>
<!-- AppRoutingModule -->
<g id="node4" class="node">
<title>AppRoutingModule</title>
<polygon fill="#8dd3c7" stroke="black" points="426.28,-84.8 423.28,-88.8 402.28,-88.8 399.28,-84.8 297.72,-84.8 297.72,-48.8 426.28,-48.8 426.28,-84.8"/>
<text text-anchor="middle" x="362" y="-62.6" font-family="Times,serif" font-size="14.00">AppRoutingModule</text>
</g>
<!-- AppRoutingModule&#45;&gt;TaxonomyModule -->
<g id="edge3" class="edge">
<title>AppRoutingModule&#45;&gt;TaxonomyModule</title>
<path fill="none" stroke="black" d="M297.42,-66.8C288.06,-66.8 281.52,-66.8 281.52,-66.8 281.52,-66.8 281.52,-103.69 281.52,-103.69"/>
<polygon fill="black" stroke="black" points="278.02,-103.69 281.52,-113.69 285.02,-103.69 278.02,-103.69"/>
</g>
</g>
</svg>
