<?xml version="1.0" encoding="UTF-8" standalone="no"?>
<!DOCTYPE svg PUBLIC "-//W3C//DTD SVG 1.1//EN"
 "http://www.w3.org/Graphics/SVG/1.1/DTD/svg11.dtd">
<!-- Generated by graphviz version 5.0.0 (20220707.1540)
 -->
<!-- Title: dependencies Pages: 1 -->
<svg width="977pt" height="247pt"
 viewBox="0.00 0.00 977.00 246.80" xmlns="http://www.w3.org/2000/svg" xmlns:xlink="http://www.w3.org/1999/xlink">
<g id="graph0" class="graph" transform="scale(1 1) rotate(0) translate(4 242.8)">
<title>dependencies</title>
<polygon fill="white" stroke="transparent" points="-4,4 -4,-242.8 973,-242.8 973,4 -4,4"/>
<text text-anchor="middle" x="484.5" y="-8.2" font-family="sans-serif" font-size="14.00">dependencies</text>
<g id="clust1" class="cluster">
<title>cluster_AppModule</title>
<polygon fill="none" stroke="black" stroke-dasharray="1,5" points="8,-32.8 8,-230.8 961,-230.8 961,-32.8 8,-32.8"/>
</g>
<g id="clust2" class="cluster">
<title>cluster_AppModule_declarations</title>
<polygon fill="none" stroke="black" points="672,-40.8 672,-92.8 953,-92.8 953,-40.8 672,-40.8"/>
</g>
<g id="clust7" class="cluster">
<title>cluster_AppModule_bootstrap</title>
<polygon fill="none" stroke="black" points="398,-170.8 398,-222.8 522,-222.8 522,-170.8 398,-170.8"/>
</g>
<g id="clust5" class="cluster">
<title>cluster_AppModule_imports</title>
<polygon fill="none" stroke="black" points="16,-40.8 16,-92.8 664,-92.8 664,-40.8 16,-40.8"/>
</g>
<!-- AppComponent -->
<g id="node1" class="node">
<title>AppComponent</title>
<polygon fill="#ffffb3" stroke="black" points="944.94,-84.8 839.06,-84.8 839.06,-48.8 944.94,-48.8 944.94,-84.8"/>
<text text-anchor="middle" x="892" y="-62.6" font-family="Times,serif" font-size="14.00">AppComponent</text>
</g>
<!-- AppModule -->
<g id="node3" class="node">
<title>AppModule</title>
<polygon fill="#8dd3c7" stroke="black" points="501.66,-149.8 498.66,-153.8 477.66,-153.8 474.66,-149.8 418.34,-149.8 418.34,-113.8 501.66,-113.8 501.66,-149.8"/>
<text text-anchor="middle" x="460" y="-127.6" font-family="Times,serif" font-size="14.00">AppModule</text>
</g>
<!-- AppComponent&#45;&gt;AppModule -->
<g id="edge1" class="edge">
<title>AppComponent&#45;&gt;AppModule</title>
<path fill="none" stroke="black" d="M892,-85.09C892,-107.01 892,-140.8 892,-140.8 892,-140.8 511.81,-140.8 511.81,-140.8"/>
<polygon fill="black" stroke="black" points="511.81,-137.3 501.81,-140.8 511.81,-144.3 511.81,-137.3"/>
</g>
<!-- CategoriesComponent -->
<g id="node2" class="node">
<title>CategoriesComponent</title>
<polygon fill="#ffffb3" stroke="black" points="821.7,-84.8 680.3,-84.8 680.3,-48.8 821.7,-48.8 821.7,-84.8"/>
<text text-anchor="middle" x="751" y="-62.6" font-family="Times,serif" font-size="14.00">CategoriesComponent</text>
</g>
<!-- CategoriesComponent&#45;&gt;AppModule -->
<g id="edge2" class="edge">
<title>CategoriesComponent&#45;&gt;AppModule</title>
<path fill="none" stroke="black" d="M751,-84.91C751,-104.14 751,-131.8 751,-131.8 751,-131.8 511.69,-131.8 511.69,-131.8"/>
<polygon fill="black" stroke="black" points="511.69,-128.3 501.69,-131.8 511.69,-135.3 511.69,-128.3"/>
</g>
<!-- AppComponent  -->
<g id="node9" class="node">
<title>AppComponent </title>
<polygon fill="#80b1d3" stroke="black" points="514.44,-214.8 405.56,-214.8 405.56,-178.8 514.44,-178.8 514.44,-214.8"/>
<text text-anchor="middle" x="460" y="-192.6" font-family="Times,serif" font-size="14.00">AppComponent </text>
</g>
<!-- AppModule&#45;&gt;AppComponent  -->
<g id="edge8" class="edge">
<title>AppModule&#45;&gt;AppComponent </title>
<path fill="none" stroke="black" stroke-dasharray="1,5" d="M460,-149.91C460,-149.91 460,-168.79 460,-168.79"/>
<polygon fill="black" stroke="black" points="456.5,-168.79 460,-178.79 463.5,-168.79 456.5,-168.79"/>
</g>
<!-- AppRoutingModule -->
<g id="node4" class="node">
<title>AppRoutingModule</title>
<polygon fill="#8dd3c7" stroke="black" points="656.28,-84.8 653.28,-88.8 632.28,-88.8 629.28,-84.8 527.72,-84.8 527.72,-48.8 656.28,-48.8 656.28,-84.8"/>
<text text-anchor="middle" x="592" y="-62.6" font-family="Times,serif" font-size="14.00">AppRoutingModule</text>
</g>
<!-- AppRoutingModule&#45;&gt;AppModule -->
<g id="edge3" class="edge">
<title>AppRoutingModule&#45;&gt;AppModule</title>
<path fill="none" stroke="black" d="M592,-84.83C592,-101.2 592,-122.8 592,-122.8 592,-122.8 511.77,-122.8 511.77,-122.8"/>
<polygon fill="black" stroke="black" points="511.77,-119.3 501.77,-122.8 511.77,-126.3 511.77,-119.3"/>
</g>
<!-- ListingModule -->
<g id="node5" class="node">
<title>ListingModule</title>
<polygon fill="#8dd3c7" stroke="black" points="509.72,-84.8 506.72,-88.8 485.72,-88.8 482.72,-84.8 410.28,-84.8 410.28,-48.8 509.72,-48.8 509.72,-84.8"/>
<text text-anchor="middle" x="460" y="-62.6" font-family="Times,serif" font-size="14.00">ListingModule</text>
</g>
<!-- ListingModule&#45;&gt;AppModule -->
<g id="edge4" class="edge">
<title>ListingModule&#45;&gt;AppModule</title>
<path fill="none" stroke="black" d="M460,-84.91C460,-84.91 460,-103.79 460,-103.79"/>
<polygon fill="black" stroke="black" points="456.5,-103.79 460,-113.79 463.5,-103.79 456.5,-103.79"/>
</g>
<!-- TaxonomyModule -->
<g id="node6" class="node">
<title>TaxonomyModule</title>
<polygon fill="#8dd3c7" stroke="black" points="392.21,-84.8 389.21,-88.8 368.21,-88.8 365.21,-84.8 271.79,-84.8 271.79,-48.8 392.21,-48.8 392.21,-84.8"/>
<text text-anchor="middle" x="332" y="-62.6" font-family="Times,serif" font-size="14.00">TaxonomyModule</text>
</g>
<!-- TaxonomyModule&#45;&gt;AppModule -->
<g id="edge5" class="edge">
<title>TaxonomyModule&#45;&gt;AppModule</title>
<path fill="none" stroke="black" d="M332,-84.83C332,-101.2 332,-122.8 332,-122.8 332,-122.8 408.09,-122.8 408.09,-122.8"/>
<polygon fill="black" stroke="black" points="408.09,-126.3 418.09,-122.8 408.09,-119.3 408.09,-126.3"/>
</g>
<!-- TransactionModule -->
<g id="node7" class="node">
<title>TransactionModule</title>
<polygon fill="#8dd3c7" stroke="black" points="253.64,-84.8 250.64,-88.8 229.64,-88.8 226.64,-84.8 128.36,-84.8 128.36,-48.8 253.64,-48.8 253.64,-84.8"/>
<text text-anchor="middle" x="191" y="-62.6" font-family="Times,serif" font-size="14.00">TransactionModule</text>
</g>
<!-- TransactionModule&#45;&gt;AppModule -->
<g id="edge6" class="edge">
<title>TransactionModule&#45;&gt;AppModule</title>
<path fill="none" stroke="black" d="M191,-84.91C191,-104.14 191,-131.8 191,-131.8 191,-131.8 408.26,-131.8 408.26,-131.8"/>
<polygon fill="black" stroke="black" points="408.26,-135.3 418.26,-131.8 408.26,-128.3 408.26,-135.3"/>
</g>
<!-- UserModule -->
<g id="node8" class="node">
<title>UserModule</title>
<polygon fill="#8dd3c7" stroke="black" points="109.99,-84.8 106.99,-88.8 85.99,-88.8 82.99,-84.8 24.01,-84.8 24.01,-48.8 109.99,-48.8 109.99,-84.8"/>
<text text-anchor="middle" x="67" y="-62.6" font-family="Times,serif" font-size="14.00">UserModule</text>
</g>
<!-- UserModule&#45;&gt;AppModule -->
<g id="edge7" class="edge">
<title>UserModule&#45;&gt;AppModule</title>
<path fill="none" stroke="black" d="M67,-85.09C67,-107.01 67,-140.8 67,-140.8 67,-140.8 408.31,-140.8 408.31,-140.8"/>
<polygon fill="black" stroke="black" points="408.31,-144.3 418.31,-140.8 408.31,-137.3 408.31,-144.3"/>
</g>
</g>
</svg>
