<?xml version="1.0" encoding="UTF-8" standalone="no"?>
<!DOCTYPE svg PUBLIC "-//W3C//DTD SVG 1.1//EN"
 "http://www.w3.org/Graphics/SVG/1.1/DTD/svg11.dtd">
<!-- Generated by graphviz version 5.0.0 (20220707.1540)
 -->
<!-- Title: dependencies Pages: 1 -->
<svg width="2258pt" height="247pt"
 viewBox="0.00 0.00 2258.00 246.80" xmlns="http://www.w3.org/2000/svg" xmlns:xlink="http://www.w3.org/1999/xlink">
<g id="graph0" class="graph" transform="scale(1 1) rotate(0) translate(4 242.8)">
<title>dependencies</title>
<polygon fill="white" stroke="transparent" points="-4,4 -4,-242.8 2254,-242.8 2254,4 -4,4"/>
<text text-anchor="middle" x="1125" y="-8.2" font-family="sans-serif" font-size="14.00">dependencies</text>
<g id="clust1" class="cluster">
<title>cluster_AppModule</title>
<polygon fill="none" stroke="black" stroke-dasharray="1,5" points="8,-32.8 8,-230.8 2242,-230.8 2242,-32.8 8,-32.8"/>
</g>
<g id="clust15" class="cluster">
<title>cluster_AppModule_imports</title>
<polygon fill="none" stroke="black" points="1952,-40.8 1952,-92.8 2234,-92.8 2234,-40.8 1952,-40.8"/>
</g>
<g id="clust17" class="cluster">
<title>cluster_AppModule_bootstrap</title>
<polygon fill="none" stroke="black" points="961,-170.8 961,-222.8 1085,-222.8 1085,-170.8 961,-170.8"/>
</g>
<g id="clust2" class="cluster">
<title>cluster_AppModule_declarations</title>
<polygon fill="none" stroke="black" points="16,-40.8 16,-92.8 1944,-92.8 1944,-40.8 16,-40.8"/>
</g>
<!-- AppComponent -->
<g id="node1" class="node">
<title>AppComponent</title>
<polygon fill="#ffffb3" stroke="black" points="1935.94,-84.8 1830.06,-84.8 1830.06,-48.8 1935.94,-48.8 1935.94,-84.8"/>
<text text-anchor="middle" x="1883" y="-62.6" font-family="Times,serif" font-size="14.00">AppComponent</text>
</g>
<!-- AppModule -->
<g id="node13" class="node">
<title>AppModule</title>
<polygon fill="#8dd3c7" stroke="black" points="1064.66,-149.8 1061.66,-153.8 1040.66,-153.8 1037.66,-149.8 981.34,-149.8 981.34,-113.8 1064.66,-113.8 1064.66,-149.8"/>
<text text-anchor="middle" x="1023" y="-127.6" font-family="Times,serif" font-size="14.00">AppModule</text>
</g>
<!-- AppComponent&#45;&gt;AppModule -->
<g id="edge1" class="edge">
<title>AppComponent&#45;&gt;AppModule</title>
<path fill="none" stroke="black" d="M1883,-84.83C1883,-105.57 1883,-136.8 1883,-136.8 1883,-136.8 1074.77,-136.8 1074.77,-136.8"/>
<polygon fill="black" stroke="black" points="1074.77,-133.3 1064.77,-136.8 1074.77,-140.3 1074.77,-133.3"/>
</g>
<!-- CategoriesComponent -->
<g id="node2" class="node">
<title>CategoriesComponent</title>
<polygon fill="#ffffb3" stroke="black" points="1812.7,-84.8 1671.3,-84.8 1671.3,-48.8 1812.7,-48.8 1812.7,-84.8"/>
<text text-anchor="middle" x="1742" y="-62.6" font-family="Times,serif" font-size="14.00">CategoriesComponent</text>
</g>
<!-- CategoriesComponent&#45;&gt;AppModule -->
<g id="edge2" class="edge">
<title>CategoriesComponent&#45;&gt;AppModule</title>
<path fill="none" stroke="black" d="M1742,-84.91C1742,-104.14 1742,-131.8 1742,-131.8 1742,-131.8 1074.76,-131.8 1074.76,-131.8"/>
<polygon fill="black" stroke="black" points="1074.76,-128.3 1064.76,-131.8 1074.76,-135.3 1074.76,-128.3"/>
</g>
<!-- ChangePasswordComponent -->
<g id="node3" class="node">
<title>ChangePasswordComponent</title>
<polygon fill="#ffffb3" stroke="black" points="1653.77,-84.8 1476.23,-84.8 1476.23,-48.8 1653.77,-48.8 1653.77,-84.8"/>
<text text-anchor="middle" x="1565" y="-62.6" font-family="Times,serif" font-size="14.00">ChangePasswordComponent</text>
</g>
<!-- ChangePasswordComponent&#45;&gt;AppModule -->
<g id="edge3" class="edge">
<title>ChangePasswordComponent&#45;&gt;AppModule</title>
<path fill="none" stroke="black" d="M1565,-85.1C1565,-103.07 1565,-127.8 1565,-127.8 1565,-127.8 1075.08,-127.8 1075.08,-127.8"/>
<polygon fill="black" stroke="black" points="1075.08,-124.3 1065.08,-127.8 1075.08,-131.3 1075.08,-124.3"/>
</g>
<!-- CreateEditListingComponent -->
<g id="node4" class="node">
<title>CreateEditListingComponent</title>
<polygon fill="#ffffb3" stroke="black" points="1458.36,-84.8 1277.64,-84.8 1277.64,-48.8 1458.36,-48.8 1458.36,-84.8"/>
<text text-anchor="middle" x="1368" y="-62.6" font-family="Times,serif" font-size="14.00">CreateEditListingComponent</text>
</g>
<!-- CreateEditListingComponent&#45;&gt;AppModule -->
<g id="edge4" class="edge">
<title>CreateEditListingComponent&#45;&gt;AppModule</title>
<path fill="none" stroke="black" d="M1368,-84.83C1368,-101.2 1368,-122.8 1368,-122.8 1368,-122.8 1074.96,-122.8 1074.96,-122.8"/>
<polygon fill="black" stroke="black" points="1074.96,-119.3 1064.96,-122.8 1074.96,-126.3 1074.96,-119.3"/>
</g>
<!-- ListingDetailComponent -->
<g id="node5" class="node">
<title>ListingDetailComponent</title>
<polygon fill="#ffffb3" stroke="black" points="1259.71,-84.8 1104.29,-84.8 1104.29,-48.8 1259.71,-48.8 1259.71,-84.8"/>
<text text-anchor="middle" x="1182" y="-62.6" font-family="Times,serif" font-size="14.00">ListingDetailComponent</text>
</g>
<!-- ListingDetailComponent&#45;&gt;AppModule -->
<g id="edge5" class="edge">
<title>ListingDetailComponent&#45;&gt;AppModule</title>
<path fill="none" stroke="black" d="M1182,-84.99C1182,-99.98 1182,-118.8 1182,-118.8 1182,-118.8 1074.78,-118.8 1074.78,-118.8"/>
<polygon fill="black" stroke="black" points="1074.78,-115.3 1064.78,-118.8 1074.78,-122.3 1074.78,-115.3"/>
</g>
<!-- ListingsComponent -->
<g id="node6" class="node">
<title>ListingsComponent</title>
<polygon fill="#ffffb3" stroke="black" points="1086.45,-84.8 959.55,-84.8 959.55,-48.8 1086.45,-48.8 1086.45,-84.8"/>
<text text-anchor="middle" x="1023" y="-62.6" font-family="Times,serif" font-size="14.00">ListingsComponent</text>
</g>
<!-- ListingsComponent&#45;&gt;AppModule -->
<g id="edge6" class="edge">
<title>ListingsComponent&#45;&gt;AppModule</title>
<path fill="none" stroke="black" d="M1023,-84.91C1023,-84.91 1023,-103.79 1023,-103.79"/>
<polygon fill="black" stroke="black" points="1019.5,-103.79 1023,-113.79 1026.5,-103.79 1019.5,-103.79"/>
</g>
<!-- LoginComponent -->
<g id="node7" class="node">
<title>LoginComponent</title>
<polygon fill="#ffffb3" stroke="black" points="941.27,-84.8 826.73,-84.8 826.73,-48.8 941.27,-48.8 941.27,-84.8"/>
<text text-anchor="middle" x="884" y="-62.6" font-family="Times,serif" font-size="14.00">LoginComponent</text>
</g>
<!-- LoginComponent&#45;&gt;AppModule -->
<g id="edge7" class="edge">
<title>LoginComponent&#45;&gt;AppModule</title>
<path fill="none" stroke="black" d="M884,-84.99C884,-99.98 884,-118.8 884,-118.8 884,-118.8 971.3,-118.8 971.3,-118.8"/>
<polygon fill="black" stroke="black" points="971.3,-122.3 981.3,-118.8 971.3,-115.3 971.3,-122.3"/>
</g>
<!-- ProfileComponent -->
<g id="node8" class="node">
<title>ProfileComponent</title>
<polygon fill="#ffffb3" stroke="black" points="808.94,-84.8 689.06,-84.8 689.06,-48.8 808.94,-48.8 808.94,-84.8"/>
<text text-anchor="middle" x="749" y="-62.6" font-family="Times,serif" font-size="14.00">ProfileComponent</text>
</g>
<!-- ProfileComponent&#45;&gt;AppModule -->
<g id="edge8" class="edge">
<title>ProfileComponent&#45;&gt;AppModule</title>
<path fill="none" stroke="black" d="M749,-84.83C749,-101.2 749,-122.8 749,-122.8 749,-122.8 971.09,-122.8 971.09,-122.8"/>
<polygon fill="black" stroke="black" points="971.09,-126.3 981.09,-122.8 971.09,-119.3 971.09,-126.3"/>
</g>
<!-- SignupComponent -->
<g id="node9" class="node">
<title>SignupComponent</title>
<polygon fill="#ffffb3" stroke="black" points="671.51,-84.8 550.49,-84.8 550.49,-48.8 671.51,-48.8 671.51,-84.8"/>
<text text-anchor="middle" x="611" y="-62.6" font-family="Times,serif" font-size="14.00">SignupComponent</text>
</g>
<!-- SignupComponent&#45;&gt;AppModule -->
<g id="edge9" class="edge">
<title>SignupComponent&#45;&gt;AppModule</title>
<path fill="none" stroke="black" d="M611,-85.1C611,-103.07 611,-127.8 611,-127.8 611,-127.8 971.23,-127.8 971.23,-127.8"/>
<polygon fill="black" stroke="black" points="971.23,-131.3 981.23,-127.8 971.23,-124.3 971.23,-131.3"/>
</g>
<!-- TaxonomyComponent -->
<g id="node10" class="node">
<title>TaxonomyComponent</title>
<polygon fill="#ffffb3" stroke="black" points="532.99,-84.8 391.01,-84.8 391.01,-48.8 532.99,-48.8 532.99,-84.8"/>
<text text-anchor="middle" x="462" y="-62.6" font-family="Times,serif" font-size="14.00">TaxonomyComponent</text>
</g>
<!-- TaxonomyComponent&#45;&gt;AppModule -->
<g id="edge10" class="edge">
<title>TaxonomyComponent&#45;&gt;AppModule</title>
<path fill="none" stroke="black" d="M462,-84.91C462,-104.14 462,-131.8 462,-131.8 462,-131.8 971.29,-131.8 971.29,-131.8"/>
<polygon fill="black" stroke="black" points="971.29,-135.3 981.29,-131.8 971.29,-128.3 971.29,-135.3"/>
</g>
<!-- TransactiondetailComponent -->
<g id="node11" class="node">
<title>TransactiondetailComponent</title>
<polygon fill="#ffffb3" stroke="black" points="373.01,-84.8 194.99,-84.8 194.99,-48.8 373.01,-48.8 373.01,-84.8"/>
<text text-anchor="middle" x="284" y="-62.6" font-family="Times,serif" font-size="14.00">TransactiondetailComponent</text>
</g>
<!-- TransactiondetailComponent&#45;&gt;AppModule -->
<g id="edge11" class="edge">
<title>TransactiondetailComponent&#45;&gt;AppModule</title>
<path fill="none" stroke="black" d="M254.25,-85.09C254.25,-107.01 254.25,-140.8 254.25,-140.8 254.25,-140.8 971.12,-140.8 971.12,-140.8"/>
<polygon fill="black" stroke="black" points="971.12,-144.3 981.12,-140.8 971.12,-137.3 971.12,-144.3"/>
</g>
<!-- TransactiondetailComponent&#45;&gt;AppModule -->
<g id="edge12" class="edge">
<title>TransactiondetailComponent&#45;&gt;AppModule</title>
<path fill="none" stroke="black" d="M313.75,-84.83C313.75,-105.57 313.75,-136.8 313.75,-136.8 313.75,-136.8 971.28,-136.8 971.28,-136.8"/>
<polygon fill="black" stroke="black" points="971.28,-140.3 981.28,-136.8 971.28,-133.3 971.28,-140.3"/>
</g>
<!-- TransactionsComponent -->
<g id="node12" class="node">
<title>TransactionsComponent</title>
<polygon fill="#ffffb3" stroke="black" points="176.36,-84.8 23.64,-84.8 23.64,-48.8 176.36,-48.8 176.36,-84.8"/>
<text text-anchor="middle" x="100" y="-62.6" font-family="Times,serif" font-size="14.00">TransactionsComponent</text>
</g>
<!-- TransactionsComponent&#45;&gt;AppModule -->
<g id="edge13" class="edge">
<title>TransactionsComponent&#45;&gt;AppModule</title>
<path fill="none" stroke="black" d="M100,-85.12C100,-108.46 100,-145.8 100,-145.8 100,-145.8 971.25,-145.8 971.25,-145.8"/>
<polygon fill="black" stroke="black" points="971.25,-149.3 981.25,-145.8 971.25,-142.3 971.25,-149.3"/>
</g>
<!-- AppComponent  -->
<g id="node16" class="node">
<title>AppComponent </title>
<polygon fill="#80b1d3" stroke="black" points="1077.44,-214.8 968.56,-214.8 968.56,-178.8 1077.44,-178.8 1077.44,-214.8"/>
<text text-anchor="middle" x="1023" y="-192.6" font-family="Times,serif" font-size="14.00">AppComponent </text>
</g>
<!-- AppModule&#45;&gt;AppComponent  -->
<g id="edge16" class="edge">
<title>AppModule&#45;&gt;AppComponent </title>
<path fill="none" stroke="black" stroke-dasharray="1,5" d="M1023,-149.91C1023,-149.91 1023,-168.79 1023,-168.79"/>
<polygon fill="black" stroke="black" points="1019.5,-168.79 1023,-178.79 1026.5,-168.79 1019.5,-168.79"/>
</g>
<!-- AppRoutingModule -->
<g id="node14" class="node">
<title>AppRoutingModule</title>
<polygon fill="#8dd3c7" stroke="black" points="2226.28,-84.8 2223.28,-88.8 2202.28,-88.8 2199.28,-84.8 2097.72,-84.8 2097.72,-48.8 2226.28,-48.8 2226.28,-84.8"/>
<text text-anchor="middle" x="2162" y="-62.6" font-family="Times,serif" font-size="14.00">AppRoutingModule</text>
</g>
<!-- AppRoutingModule&#45;&gt;AppModule -->
<g id="edge14" class="edge">
<title>AppRoutingModule&#45;&gt;AppModule</title>
<path fill="none" stroke="black" d="M2162,-85.12C2162,-108.46 2162,-145.8 2162,-145.8 2162,-145.8 1074.89,-145.8 1074.89,-145.8"/>
<polygon fill="black" stroke="black" points="1074.89,-142.3 1064.89,-145.8 1074.89,-149.3 1074.89,-142.3"/>
</g>
<!-- TaxonomyModule -->
<g id="node15" class="node">
<title>TaxonomyModule</title>
<polygon fill="#8dd3c7" stroke="black" points="2080.21,-84.8 2077.21,-88.8 2056.21,-88.8 2053.21,-84.8 1959.79,-84.8 1959.79,-48.8 2080.21,-48.8 2080.21,-84.8"/>
<text text-anchor="middle" x="2020" y="-62.6" font-family="Times,serif" font-size="14.00">TaxonomyModule</text>
</g>
<!-- TaxonomyModule&#45;&gt;AppModule -->
<g id="edge15" class="edge">
<title>TaxonomyModule&#45;&gt;AppModule</title>
<path fill="none" stroke="black" d="M2020,-85.09C2020,-107.01 2020,-140.8 2020,-140.8 2020,-140.8 1074.89,-140.8 1074.89,-140.8"/>
<polygon fill="black" stroke="black" points="1074.89,-137.3 1064.89,-140.8 1074.89,-144.3 1074.89,-137.3"/>
</g>
</g>
</svg>
