<?xml version="1.0" encoding="UTF-8" standalone="no"?>
<!DOCTYPE svg PUBLIC "-//W3C//DTD SVG 1.1//EN"
 "http://www.w3.org/Graphics/SVG/1.1/DTD/svg11.dtd">
<!-- Generated by graphviz version 5.0.0 (20220707.1540)
 -->
<!-- Title: dependencies Pages: 1 -->
<svg width="557pt" height="174pt"
 viewBox="0.00 0.00 557.00 173.80" xmlns="http://www.w3.org/2000/svg" xmlns:xlink="http://www.w3.org/1999/xlink">
<g id="graph0" class="graph" transform="scale(1 1) rotate(0) translate(4 169.8)">
<title>dependencies</title>
<polygon fill="white" stroke="transparent" points="-4,4 -4,-169.8 553,-169.8 553,4 -4,4"/>
<text text-anchor="middle" x="274.5" y="-8.2" font-family="sans-serif" font-size="14.00">dependencies</text>
<g id="clust1" class="cluster">
<title>cluster_TransactionModule</title>
<polygon fill="none" stroke="black" stroke-dasharray="1,5" points="8,-32.8 8,-157.8 541,-157.8 541,-32.8 8,-32.8"/>
</g>
<g id="clust5" class="cluster">
<title>cluster_TransactionModule_imports</title>
<polygon fill="none" stroke="black" points="389,-40.8 389,-92.8 533,-92.8 533,-40.8 389,-40.8"/>
</g>
<g id="clust2" class="cluster">
<title>cluster_TransactionModule_declarations</title>
<polygon fill="none" stroke="black" points="16,-40.8 16,-92.8 381,-92.8 381,-40.8 16,-40.8"/>
</g>
<!-- TransactiondetailComponent -->
<g id="node1" class="node">
<title>TransactiondetailComponent</title>
<polygon fill="#ffffb3" stroke="black" points="373.01,-84.8 194.99,-84.8 194.99,-48.8 373.01,-48.8 373.01,-84.8"/>
<text text-anchor="middle" x="284" y="-62.6" font-family="Times,serif" font-size="14.00">TransactiondetailComponent</text>
</g>
<!-- TransactionModule -->
<g id="node3" class="node">
<title>TransactionModule</title>
<polygon fill="#8dd3c7" stroke="black" points="346.64,-149.8 343.64,-153.8 322.64,-153.8 319.64,-149.8 221.36,-149.8 221.36,-113.8 346.64,-113.8 346.64,-149.8"/>
<text text-anchor="middle" x="284" y="-127.6" font-family="Times,serif" font-size="14.00">TransactionModule</text>
</g>
<!-- TransactiondetailComponent&#45;&gt;TransactionModule -->
<g id="edge1" class="edge">
<title>TransactiondetailComponent&#45;&gt;TransactionModule</title>
<path fill="none" stroke="black" d="M284,-84.91C284,-84.91 284,-103.79 284,-103.79"/>
<polygon fill="black" stroke="black" points="280.5,-103.79 284,-113.79 287.5,-103.79 280.5,-103.79"/>
</g>
<!-- TransactionsComponent -->
<g id="node2" class="node">
<title>TransactionsComponent</title>
<polygon fill="#ffffb3" stroke="black" points="176.36,-84.8 23.64,-84.8 23.64,-48.8 176.36,-48.8 176.36,-84.8"/>
<text text-anchor="middle" x="100" y="-62.6" font-family="Times,serif" font-size="14.00">TransactionsComponent</text>
</g>
<!-- TransactionsComponent&#45;&gt;TransactionModule -->
<g id="edge2" class="edge">
<title>TransactionsComponent&#45;&gt;TransactionModule</title>
<path fill="none" stroke="black" d="M100,-84.91C100,-104.14 100,-131.8 100,-131.8 100,-131.8 211.19,-131.8 211.19,-131.8"/>
<polygon fill="black" stroke="black" points="211.19,-135.3 221.19,-131.8 211.19,-128.3 211.19,-135.3"/>
</g>
<!-- AppRoutingModule -->
<g id="node4" class="node">
<title>AppRoutingModule</title>
<polygon fill="#8dd3c7" stroke="black" points="525.28,-84.8 522.28,-88.8 501.28,-88.8 498.28,-84.8 396.72,-84.8 396.72,-48.8 525.28,-48.8 525.28,-84.8"/>
<text text-anchor="middle" x="461" y="-62.6" font-family="Times,serif" font-size="14.00">AppRoutingModule</text>
</g>
<!-- AppRoutingModule&#45;&gt;TransactionModule -->
<g id="edge3" class="edge">
<title>AppRoutingModule&#45;&gt;TransactionModule</title>
<path fill="none" stroke="black" d="M461,-84.91C461,-104.14 461,-131.8 461,-131.8 461,-131.8 356.9,-131.8 356.9,-131.8"/>
<polygon fill="black" stroke="black" points="356.9,-128.3 346.9,-131.8 356.9,-135.3 356.9,-128.3"/>
</g>
</g>
</svg>
